<?xml version="1.0" encoding="utf-8"?>
<!-- Generator: Adobe Illustrator 27.5.0, SVG Export Plug-In . SVG Version: 6.00 Build 0)  -->
<svg version="1.1" id="Livello_1" xmlns="http://www.w3.org/2000/svg" xmlns:xlink="http://www.w3.org/1999/xlink" x="0px" y="0px"
	 viewBox="0 0 448 512" style="enable-background:new 0 0 448 512;" xml:space="preserve">
<style type="text/css">
	.st0{fill:#A1A397;}
</style>
<path class="st0" d="M64,32C28.7,32,0,60.7,0,96v320c0,35.3,28.7,64,64,64h320c35.3,0,64-28.7,64-64V96c0-35.3-28.7-64-64-64H64z
	 M325.8,139.7l14.4,14.4c15.6,15.6,15.6,40.9,0,56.6l-21.4,21.4l-71-71l21.4-21.4C284.8,124.1,310.1,124.1,325.8,139.7L325.8,139.7z
	 M119.9,289l105.2-105.2l71,71L190.9,359.9c-4.1,4.1-9.2,7-14.9,8.4l-60.1,15c-5.5,1.4-11.2-0.2-15.2-4.2s-5.6-9.7-4.2-15.2l15-60.1
	c1.4-5.6,4.3-10.8,8.4-14.9L119.9,289z"/>
</svg>
